<?xml version="1.0" standalone="no"?>
<!DOCTYPE svg PUBLIC "-//W3C//DTD SVG 20010904//EN"
 "http://www.w3.org/TR/2001/REC-SVG-20010904/DTD/svg10.dtd">
<svg version="1.0" xmlns="http://www.w3.org/2000/svg"
 width="3243.000000pt" height="3335.000000pt" viewBox="0 0 3243.000000 3335.000000"
 preserveAspectRatio="xMidYMid meet">

<g transform="translate(0.000000,3335.000000) scale(0.100000,-0.100000)"
fill="#000000" stroke="none">
<path d="M10 16710 l0 -16640 16205 0 16205 0 0 16640 0 16640 -16205 0
-16205 0 0 -16640z m16655 10690 c852 -51 1650 -180 2434 -391 2893 -779 5368
-2629 6869 -5134 826 -1380 1332 -2915 1476 -4485 35 -376 40 -516 40 -990 0
-565 -17 -857 -80 -1350 -276 -2160 -1230 -4211 -2728 -5865 -273 -301 -689
-706 -1005 -978 -957 -823 -2044 -1485 -3226 -1963 -2598 -1051 -5545 -1142
-8205 -255 -314 105 -555 195 -815 303 -2386 999 -4337 2722 -5570 4918 -129
231 -388 756 -492 1000 -423 987 -685 1977 -802 3035 -48 424 -55 585 -55
1155 0 570 7 720 55 1160 339 3112 2072 5960 4744 7797 980 673 2083 1204
3222 1548 1011 306 1972 464 3103 509 153 6 861 -3 1035 -14z"/>
<path d="M15790 25003 c-2190 -46 -4264 -844 -5898 -2269 -182 -159 -541 -512
-712 -699 -1073 -1179 -1781 -2589 -2070 -4120 -141 -747 -176 -1566 -99
-2330 278 -2771 1941 -5233 4484 -6640 1004 -555 2170 -933 3315 -1074 672
-83 1372 -95 2035 -36 2366 212 4551 1314 6085 3070 1768 2023 2462 4689 1895
7270 -305 1387 -963 2666 -1944 3779 -167 190 -579 600 -776 772 -886 774
-1879 1355 -2988 1748 -1036 368 -2202 553 -3327 529z m1585 -623 c776 -50
1501 -284 2092 -676 354 -235 624 -498 845 -824 280 -412 421 -814 454 -1285
8 -122 22 -160 66 -180 18 -8 99 -30 180 -50 968 -233 1778 -856 2101 -1615
170 -400 209 -852 110 -1298 -145 -662 -620 -1254 -1321 -1646 -318 -178 -693
-312 -1077 -386 -148 -28 -402 -60 -478 -60 -40 0 -70 -5 -83 -15 -25 -19 -83
-19 -121 0 -27 13 -195 15 -1379 13 l-1348 -3 -28 -72 c-42 -109 -77 -235
-100 -363 -28 -153 -30 -456 -4 -605 70 -407 221 -723 497 -1036 188 -213 584
-433 953 -530 205 -53 334 -71 561 -76 205 -5 216 -4 440 31 795 126 921 140
1280 140 286 1 384 -6 605 -45 470 -82 893 -270 1199 -533 45 -38 79 -71 76
-74 -2 -3 -35 13 -72 35 -333 198 -729 329 -1168 389 -180 25 -580 25 -755 1
-138 -19 -340 -59 -421 -83 l-52 -16 69 -23 c282 -95 534 -254 743 -467 83
-86 191 -216 191 -231 0 -5 -21 7 -47 27 -459 350 -979 536 -1576 562 -216 10
-524 -21 -730 -74 l-69 -17 79 -71 c229 -205 402 -334 908 -674 406 -274 586
-402 744 -528 511 -411 839 -884 946 -1362 20 -88 33 -426 18 -441 -7 -7 -12
13 -17 56 -24 237 -123 524 -253 735 -161 260 -404 511 -740 764 -156 117
-623 425 -623 411 0 -3 11 -27 24 -53 62 -123 125 -348 147 -526 17 -137 6
-401 -21 -530 -21 -98 -78 -291 -85 -284 -2 2 8 48 22 103 24 90 26 119 27
295 0 167 -3 210 -22 300 -138 634 -626 1171 -1432 1575 -335 168 -591 254
-1145 385 -232 56 -437 120 -536 170 -32 17 -59 28 -59 26 0 -13 1039 -1021
1097 -1064 95 -72 151 -100 358 -177 254 -95 398 -170 563 -292 313 -231 565
-569 696 -933 44 -123 85 -308 92 -413 l5 -82 -60 139 c-348 796 -749 1239
-1259 1390 l-53 15 35 -42 c61 -76 146 -214 201 -329 97 -201 159 -434 171
-632 l5 -91 -39 111 c-161 464 -504 856 -1145 1312 -187 133 -367 254 -367
247 0 -3 -23 13 -52 35 -28 23 -68 50 -87 60 -20 10 -81 48 -136 85 -117 78
-252 145 -292 145 -59 0 -67 -16 -69 -136 -3 -213 -66 -340 -388 -779 -151
-205 -225 -344 -265 -499 -121 -463 71 -1055 517 -1586 122 -146 286 -298 527
-491 121 -97 255 -208 299 -247 208 -187 335 -382 366 -565 7 -38 10 -70 8
-72 -2 -3 -30 46 -61 108 -124 247 -318 438 -571 563 -119 58 -143 65 -130 37
4 -10 26 -74 50 -143 66 -194 105 -399 120 -631 7 -113 -3 -359 -15 -359 -4 0
-13 35 -20 77 -19 111 -83 358 -131 503 -156 470 -416 940 -725 1314 l-68 81
7 -55 c3 -30 9 -161 12 -290 13 -490 -65 -936 -241 -1380 -60 -151 -144 -335
-150 -329 -2 2 14 65 35 141 96 341 140 659 140 1023 0 359 -27 558 -154 1145
-102 471 -132 665 -143 927 l-6 151 -51 -55 c-147 -161 -354 -447 -468 -648
-223 -393 -383 -870 -435 -1292 -10 -79 -21 -143 -24 -143 -9 0 -19 150 -19
295 0 412 96 828 280 1210 32 66 73 144 90 174 l32 54 -59 -33 c-325 -182
-640 -467 -863 -780 -343 -482 -519 -1079 -480 -1627 6 -80 8 -148 6 -150 -7
-7 -45 149 -67 272 -93 534 38 1146 344 1602 189 282 395 489 897 903 353 291
431 360 595 524 300 300 486 576 580 860 31 93 71 273 63 281 -2 2 -35 -37
-73 -88 -143 -189 -385 -406 -655 -587 -215 -144 -394 -241 -975 -530 -596
-296 -810 -412 -1019 -552 -289 -193 -522 -397 -668 -584 -63 -80 -58 -56 8
38 180 259 501 600 754 802 282 225 640 439 937 562 48 20 90 39 93 41 7 8
-173 -5 -320 -23 -327 -39 -1586 -267 -1875 -340 -370 -94 -772 -276 -1335
-607 -80 -47 -146 -84 -148 -82 -5 5 80 81 174 157 239 192 576 376 926 507
163 60 502 169 583 187 33 7 155 35 270 63 116 27 415 93 665 146 778 164 934
203 1150 290 671 269 1040 875 1144 1880 l7 60 -52 -90 c-147 -259 -302 -458
-539 -695 -272 -273 -546 -474 -867 -638 -292 -149 -468 -212 -933 -337 -548
-147 -776 -242 -984 -409 -38 -31 -71 -56 -73 -56 -12 0 44 64 104 121 195
182 415 307 838 474 121 48 294 116 385 152 300 118 590 277 725 396 l40 36
-92 -35 c-260 -97 -472 -133 -1268 -219 -282 -31 -493 -65 -625 -101 -52 -15
-131 -34 -175 -44 -245 -53 -475 -129 -635 -211 -52 -26 -306 -171 -565 -322
-258 -151 -472 -272 -474 -270 -9 7 173 184 289 282 508 427 1123 709 1775
812 l80 13 -135 43 c-167 54 -378 98 -575 119 -198 21 -552 14 -740 -15 -595
-90 -1085 -312 -1524 -687 -84 -73 -24 2 81 100 308 286 641 484 1038 616 279
92 495 129 807 137 260 7 396 -2 888 -58 497 -57 551 -55 767 30 315 124 557
277 758 480 225 227 360 482 431 811 21 93 23 133 23 355 1 272 -8 344 -64
565 -54 214 -146 451 -205 533 l-35 47 -1648 0 c-1434 0 -1651 -2 -1668 -15
-24 -19 -57 -19 -137 0 -36 8 -145 24 -243 36 -273 31 -568 114 -843 236 -529
234 -894 569 -1120 1028 -66 133 -137 329 -147 405 -4 29 -14 56 -25 66 -18
16 -19 36 -19 280 0 244 1 265 20 296 11 19 26 68 34 110 8 42 33 123 55 180
167 426 463 774 879 1031 121 75 339 182 498 246 75 30 142 63 155 77 20 22
24 38 31 157 21 338 106 595 287 864 527 782 1629 1162 2721 937 111 -23 247
-65 437 -136 l62 -23 26 20 c18 14 42 58 75 140 93 232 171 382 295 570 422
638 1089 1091 1988 1351 494 142 968 195 1462 164z"/>
</g>
</svg>
